# xmcd
#
# Track frame offsets:
#	150
#	53149
#	82907
#	120458
#	192154
#
# Disc length: 3320 seconds
#
# Revision: 0
# Processed by: cddbd v1.5.2PL0 Copyright (c) Steve Scherf et al.
# Submitted via: audiograbber 1.83.01
#
DISCID=340cf605
DTITLE=Grateful Dead - 94-04-04 Orlando Arena, Orlando FL
DYEAR=1900
DGENRE=
TTITLE0=Iko Iko
TTITLE1=Way To Go Home
TTITLE2=Truckin'
TTITLE3=Terrapin Station
TTITLE4=Drums
EXTD=
EXTT0=
EXTT1=
EXTT2=
EXTT3=
EXTT4=
PLAYORDER=
